<svg width="53" height="53" viewBox="0 0 53 53" fill="none" xmlns="http://www.w3.org/2000/svg">
<path d="M25.4449 13.59C28.2569 13.59 30.7142 14.1347 32.8169 15.224C34.9449 16.288 36.5789 17.8333 37.7189 19.86C38.8842 21.8613 39.4669 24.2047 39.4669 26.89C39.4669 29.5753 38.8842 31.906 37.7189 33.882C36.5789 35.858 34.9449 37.378 32.8169 38.442C30.7142 39.4807 28.2569 40 25.4449 40H16.8189V13.59H25.4449ZM25.4449 36.466C28.5355 36.466 30.9042 35.63 32.5509 33.958C34.1975 32.286 35.0209 29.93 35.0209 26.89C35.0209 23.8247 34.1975 21.4307 32.5509 19.708C30.9042 17.9853 28.5355 17.124 25.4449 17.124H21.1509V36.466H25.4449Z" fill="white"/>
<path d="M32.8169 15.224L32.3569 16.1119L32.3632 16.1152L32.3697 16.1184L32.8169 15.224ZM37.7189 19.86L36.8473 20.3503L36.8509 20.3568L36.8547 20.3632L37.7189 19.86ZM37.7189 33.882L36.8575 33.374L36.8527 33.3823L37.7189 33.882ZM32.8169 38.442L33.2598 39.3386L33.2641 39.3364L32.8169 38.442ZM16.8189 40H15.8189V41H16.8189V40ZM16.8189 13.59V12.59H15.8189V13.59H16.8189ZM32.5509 33.958L31.8384 33.2563L31.8384 33.2563L32.5509 33.958ZM21.1509 17.124V16.124H20.1509V17.124H21.1509ZM21.1509 36.466H20.1509V37.466H21.1509V36.466ZM25.4449 14.59C28.1266 14.59 30.4207 15.1088 32.3569 16.1119L33.2769 14.3361C31.0077 13.1605 28.3871 12.59 25.4449 12.59V14.59ZM32.3697 16.1184C34.3234 17.0953 35.8076 18.5019 36.8473 20.3503L38.5904 19.3697C37.3501 17.1648 35.5663 15.4807 33.2641 14.3296L32.3697 16.1184ZM36.8547 20.3632C37.9177 22.1888 38.4669 24.3529 38.4669 26.89H40.4669C40.4669 24.0564 39.8507 21.5338 38.583 19.3568L36.8547 20.3632ZM38.4669 26.89C38.4669 29.4275 37.9176 31.5764 36.8575 33.374L38.5802 34.39C39.8508 32.2356 40.4669 29.7232 40.4669 26.89H38.4669ZM36.8527 33.3823C35.815 35.181 34.3303 36.5673 32.3697 37.5476L33.2641 39.3364C35.5595 38.1887 37.3427 36.535 38.585 34.3817L36.8527 33.3823ZM32.374 37.5454C30.4338 38.5038 28.1335 39 25.4449 39V41C28.3802 41 30.9946 40.4575 33.2598 39.3386L32.374 37.5454ZM25.4449 39H16.8189V41H25.4449V39ZM17.8189 40V13.59H15.8189L15.8189 40H17.8189ZM16.8189 14.59H25.4449V12.59H16.8189V14.59ZM25.4449 37.466C28.7151 37.466 31.3747 36.5774 33.2633 34.6597L31.8384 33.2563C30.4337 34.6826 28.356 35.466 25.4449 35.466V37.466ZM33.2633 34.6597C35.1441 32.75 36.0209 30.1118 36.0209 26.89H34.0209C34.0209 29.7482 33.251 31.822 31.8384 33.2563L33.2633 34.6597ZM36.0209 26.89C36.0209 23.6438 35.1449 20.9746 33.2737 19.017L31.828 20.399C33.2501 21.8867 34.0209 24.0055 34.0209 26.89H36.0209ZM33.2737 19.017C31.3867 17.0429 28.7234 16.124 25.4449 16.124V18.124C28.3477 18.124 30.4217 18.9278 31.828 20.399L33.2737 19.017ZM25.4449 16.124H21.1509V18.124H25.4449V16.124ZM20.1509 17.124V36.466H22.1509V17.124H20.1509ZM21.1509 37.466H25.4449V35.466H21.1509V37.466Z" fill="black"/>
<mask id="path-3-outside-1_25_2" maskUnits="userSpaceOnUse" x="0.166626" y="0.166626" width="52" height="52" fill="black">
<rect fill="white" x="0.166626" y="0.166626" width="52" height="52"/>
<path d="M47.8173 13.6666C50.6587 18.5881 51.7386 24.3307 50.879 29.9482C50.0194 35.5656 47.2716 40.7225 43.0885 44.5691C38.9054 48.4156 33.5366 50.7222 27.867 51.1087C22.1974 51.4952 16.5652 49.9386 11.8988 46.6954C7.23235 43.4521 3.81013 38.7158 2.19613 33.267C0.582129 27.8182 0.872667 21.9821 3.01986 16.7206C5.16706 11.4591 9.04277 7.08607 14.0082 4.32232C18.9737 1.55857 24.7326 0.569011 30.3358 1.51673L29.6296 5.69238C24.9755 4.90521 20.1922 5.72714 16.0679 8.02271C11.9435 10.3183 8.72435 13.9505 6.94089 18.3207C5.15743 22.691 4.91611 27.5384 6.2567 32.0642C7.59729 36.59 10.4398 40.524 14.3157 43.2178C18.1917 45.9117 22.8697 47.2046 27.579 46.8836C32.2882 46.5625 36.7475 44.6467 40.222 41.4517C43.6965 38.2568 45.9788 33.9734 46.6927 29.3076C47.4067 24.6417 46.5097 19.8719 44.1497 15.7841L47.8173 13.6666Z"/>
</mask>
<path d="M47.8173 13.6666C50.6587 18.5881 51.7386 24.3307 50.879 29.9482C50.0194 35.5656 47.2716 40.7225 43.0885 44.5691C38.9054 48.4156 33.5366 50.7222 27.867 51.1087C22.1974 51.4952 16.5652 49.9386 11.8988 46.6954C7.23235 43.4521 3.81013 38.7158 2.19613 33.267C0.582129 27.8182 0.872667 21.9821 3.01986 16.7206C5.16706 11.4591 9.04277 7.08607 14.0082 4.32232C18.9737 1.55857 24.7326 0.569011 30.3358 1.51673L29.6296 5.69238C24.9755 4.90521 20.1922 5.72714 16.0679 8.02271C11.9435 10.3183 8.72435 13.9505 6.94089 18.3207C5.15743 22.691 4.91611 27.5384 6.2567 32.0642C7.59729 36.59 10.4398 40.524 14.3157 43.2178C18.1917 45.9117 22.8697 47.2046 27.579 46.8836C32.2882 46.5625 36.7475 44.6467 40.222 41.4517C43.6965 38.2568 45.9788 33.9734 46.6927 29.3076C47.4067 24.6417 46.5097 19.8719 44.1497 15.7841L47.8173 13.6666Z" fill="white"/>
<path d="M47.8173 13.6666C50.6587 18.5881 51.7386 24.3307 50.879 29.9482C50.0194 35.5656 47.2716 40.7225 43.0885 44.5691C38.9054 48.4156 33.5366 50.7222 27.867 51.1087C22.1974 51.4952 16.5652 49.9386 11.8988 46.6954C7.23235 43.4521 3.81013 38.7158 2.19613 33.267C0.582129 27.8182 0.872667 21.9821 3.01986 16.7206C5.16706 11.4591 9.04277 7.08607 14.0082 4.32232C18.9737 1.55857 24.7326 0.569011 30.3358 1.51673L29.6296 5.69238C24.9755 4.90521 20.1922 5.72714 16.0679 8.02271C11.9435 10.3183 8.72435 13.9505 6.94089 18.3207C5.15743 22.691 4.91611 27.5384 6.2567 32.0642C7.59729 36.59 10.4398 40.524 14.3157 43.2178C18.1917 45.9117 22.8697 47.2046 27.579 46.8836C32.2882 46.5625 36.7475 44.6467 40.222 41.4517C43.6965 38.2568 45.9788 33.9734 46.6927 29.3076C47.4067 24.6417 46.5097 19.8719 44.1497 15.7841L47.8173 13.6666Z" stroke="black" stroke-width="2" mask="url(#path-3-outside-1_25_2)"/>
</svg>
