<svg width="52" height="52" viewBox="0 0 52 52" fill="none" xmlns="http://www.w3.org/2000/svg">
<mask id="path-1-outside-1_35_4" maskUnits="userSpaceOnUse" x="25" y="13" width="15" height="27" fill="black">
<rect fill="white" x="25" y="13" width="15" height="27"/>
<path d="M26.3442 14C29.6181 14 32.7579 15.3005 35.0729 17.6155C37.3879 19.9305 38.6885 23.0703 38.6885 26.3442C38.6885 29.6181 37.3879 32.7579 35.0729 35.0729C32.7579 37.3879 29.6181 38.6885 26.3442 38.6885L26.3442 32.2077C27.8993 32.2077 29.3907 31.59 30.4904 30.4904C31.59 29.3907 32.2077 27.8993 32.2077 26.3442C32.2077 24.7891 31.59 23.2977 30.4904 22.1981C29.3907 21.0985 27.8993 20.4807 26.3442 20.4807V14Z"/>
</mask>
<path d="M26.3442 14C29.6181 14 32.7579 15.3005 35.0729 17.6155C37.3879 19.9305 38.6885 23.0703 38.6885 26.3442C38.6885 29.6181 37.3879 32.7579 35.0729 35.0729C32.7579 37.3879 29.6181 38.6885 26.3442 38.6885L26.3442 32.2077C27.8993 32.2077 29.3907 31.59 30.4904 30.4904C31.59 29.3907 32.2077 27.8993 32.2077 26.3442C32.2077 24.7891 31.59 23.2977 30.4904 22.1981C29.3907 21.0985 27.8993 20.4807 26.3442 20.4807V14Z" fill="white"/>
<path d="M26.3442 14C29.6181 14 32.7579 15.3005 35.0729 17.6155C37.3879 19.9305 38.6885 23.0703 38.6885 26.3442C38.6885 29.6181 37.3879 32.7579 35.0729 35.0729C32.7579 37.3879 29.6181 38.6885 26.3442 38.6885L26.3442 32.2077C27.8993 32.2077 29.3907 31.59 30.4904 30.4904C31.59 29.3907 32.2077 27.8993 32.2077 26.3442C32.2077 24.7891 31.59 23.2977 30.4904 22.1981C29.3907 21.0985 27.8993 20.4807 26.3442 20.4807V14Z" stroke="black" stroke-width="1.94574" mask="url(#path-1-outside-1_35_4)"/>
<rect x="19.1" y="13.5136" width="7.57276" height="25.6613" fill="white" stroke="black" stroke-width="0.972872"/>
<mask id="path-3-outside-2_35_4" maskUnits="userSpaceOnUse" x="0" y="0" width="52" height="52" fill="black">
<rect fill="white" width="52" height="52"/>
<path d="M51 26C51 31.5274 49.1682 36.899 45.7909 41.2748C42.4137 45.6505 37.6816 48.7836 32.3345 50.1842C26.9874 51.5847 21.327 51.1737 16.2383 49.0154C11.1497 46.8571 6.91976 43.0733 4.21008 38.2556C1.5004 33.4379 0.463743 27.858 1.26223 22.3885C2.06071 16.9191 4.64932 11.8684 8.62322 8.02648C12.5971 4.18451 17.7322 1.76785 23.2255 1.15443C28.7188 0.541004 34.2606 1.7654 38.9841 4.63614L35.738 9.97711C32.1954 7.82405 28.0391 6.90575 23.9192 7.36582C19.7992 7.82589 15.9478 9.63838 12.9674 12.5199C9.98699 15.4013 8.04554 19.1893 7.44667 23.2914C6.84781 27.3935 7.6253 31.5784 9.65756 35.1917C11.6898 38.805 14.8623 41.6429 18.6787 43.2616C22.4952 44.8803 26.7406 45.1885 30.7509 44.1381C34.7612 43.0877 38.3103 40.7379 40.8432 37.4561C43.3761 34.1743 44.75 30.1456 44.75 26H51Z"/>
</mask>
<path d="M51 26C51 31.5274 49.1682 36.899 45.7909 41.2748C42.4137 45.6505 37.6816 48.7836 32.3345 50.1842C26.9874 51.5847 21.327 51.1737 16.2383 49.0154C11.1497 46.8571 6.91976 43.0733 4.21008 38.2556C1.5004 33.4379 0.463743 27.858 1.26223 22.3885C2.06071 16.9191 4.64932 11.8684 8.62322 8.02648C12.5971 4.18451 17.7322 1.76785 23.2255 1.15443C28.7188 0.541004 34.2606 1.7654 38.9841 4.63614L35.738 9.97711C32.1954 7.82405 28.0391 6.90575 23.9192 7.36582C19.7992 7.82589 15.9478 9.63838 12.9674 12.5199C9.98699 15.4013 8.04554 19.1893 7.44667 23.2914C6.84781 27.3935 7.6253 31.5784 9.65756 35.1917C11.6898 38.805 14.8623 41.6429 18.6787 43.2616C22.4952 44.8803 26.7406 45.1885 30.7509 44.1381C34.7612 43.0877 38.3103 40.7379 40.8432 37.4561C43.3761 34.1743 44.75 30.1456 44.75 26H51Z" fill="white"/>
<path d="M51 26C51 31.5274 49.1682 36.899 45.7909 41.2748C42.4137 45.6505 37.6816 48.7836 32.3345 50.1842C26.9874 51.5847 21.327 51.1737 16.2383 49.0154C11.1497 46.8571 6.91976 43.0733 4.21008 38.2556C1.5004 33.4379 0.463743 27.858 1.26223 22.3885C2.06071 16.9191 4.64932 11.8684 8.62322 8.02648C12.5971 4.18451 17.7322 1.76785 23.2255 1.15443C28.7188 0.541004 34.2606 1.7654 38.9841 4.63614L35.738 9.97711C32.1954 7.82405 28.0391 6.90575 23.9192 7.36582C19.7992 7.82589 15.9478 9.63838 12.9674 12.5199C9.98699 15.4013 8.04554 19.1893 7.44667 23.2914C6.84781 27.3935 7.6253 31.5784 9.65756 35.1917C11.6898 38.805 14.8623 41.6429 18.6787 43.2616C22.4952 44.8803 26.7406 45.1885 30.7509 44.1381C34.7612 43.0877 38.3103 40.7379 40.8432 37.4561C43.3761 34.1743 44.75 30.1456 44.75 26H51Z" stroke="black" stroke-width="2" mask="url(#path-3-outside-2_35_4)"/>
</svg>
