<svg width="66" height="66" viewBox="0 0 66 66" fill="none" xmlns="http://www.w3.org/2000/svg">
<path d="M23.7161 47.5333V17.4312H32.6061C35.2663 17.4312 37.6232 18.0239 39.6768 19.2092C41.7443 20.3945 43.3431 22.0761 44.4733 24.2538C45.6035 26.4315 46.1686 28.9262 46.1686 31.738V33.2472C46.1686 36.1003 45.5966 38.6088 44.4526 40.7727C43.3224 42.9367 41.7029 44.6044 39.5941 45.776C37.4991 46.9475 35.094 47.5333 32.3787 47.5333H23.7161ZM28.9467 21.6488V43.3571H32.358C35.1009 43.3571 37.2028 42.5025 38.6638 40.7934C40.1386 39.0705 40.8897 36.6034 40.9173 33.3919V31.7173C40.9173 28.4507 40.2075 25.956 38.7878 24.2331C37.3682 22.5102 35.3076 21.6488 32.6061 21.6488H28.9467Z" fill="#FF0000"/>
<path d="M23.7161 47.5333H22.6827V48.5667H23.7161V47.5333ZM23.7161 17.4312V16.3979H22.6827V17.4312H23.7161ZM39.6768 19.2092L39.1603 20.1042L39.1629 20.1056L39.6768 19.2092ZM44.4526 40.7727L43.5391 40.2898L43.5367 40.2944L44.4526 40.7727ZM39.5941 45.776L39.0923 44.8727L39.0898 44.8741L39.5941 45.776ZM28.9467 21.6488V20.6155H27.9134V21.6488H28.9467ZM28.9467 43.3571H27.9134V44.3904H28.9467V43.3571ZM38.6638 40.7934L37.8788 40.1215L37.8783 40.122L38.6638 40.7934ZM40.9173 33.3919L41.9506 33.4008V33.3919H40.9173ZM24.7494 47.5333V17.4312H22.6827V47.5333H24.7494ZM23.7161 18.4645H32.6061V16.3979H23.7161V18.4645ZM32.6061 18.4645C35.1075 18.4645 37.2821 19.0201 39.1603 20.1042L40.1934 18.3142C37.9642 17.0276 35.425 16.3979 32.6061 16.3979V18.4645ZM39.1629 20.1056C41.0531 21.1894 42.5144 22.7225 43.5561 24.7298L45.3905 23.7778C44.1718 21.4296 42.4355 19.5997 40.1908 18.3127L39.1629 20.1056ZM43.5561 24.7298C44.5996 26.7403 45.1353 29.0676 45.1353 31.738H47.202C47.202 28.7849 46.6075 26.1228 45.3905 23.7778L43.5561 24.7298ZM45.1353 31.738V33.2472H47.202V31.738H45.1353ZM45.1353 33.2472C45.1353 35.9599 44.5923 38.2976 43.5391 40.2898L45.3662 41.2557C46.6009 38.92 47.202 36.2407 47.202 33.2472H45.1353ZM43.5367 40.2944C42.4988 42.2815 41.0223 43.8005 39.0923 44.8727L40.096 46.6793C42.3836 45.4084 44.146 43.5919 45.3686 41.2511L43.5367 40.2944ZM39.0898 44.8741C37.1682 45.9487 34.9409 46.5 32.3787 46.5V48.5667C35.247 48.5667 37.83 47.9464 40.0985 46.6779L39.0898 44.8741ZM32.3787 46.5H23.7161V48.5667H32.3787V46.5ZM27.9134 21.6488V43.3571H29.9801V21.6488H27.9134ZM28.9467 44.3904H32.358V42.3237H28.9467V44.3904ZM32.358 44.3904C35.3304 44.3904 37.7492 43.4536 39.4492 41.4649L37.8783 40.122C36.6563 41.5515 34.8713 42.3237 32.358 42.3237V44.3904ZM39.4488 41.4654C41.1365 39.4938 41.9218 36.7558 41.9506 33.4008L39.884 33.3831C39.8577 36.451 39.1406 38.6473 37.8788 40.1215L39.4488 41.4654ZM41.9506 33.3919V31.7173H39.884V33.3919H41.9506ZM41.9506 31.7173C41.9506 28.3188 41.2142 25.5529 39.5853 23.576L37.9903 24.8902C39.2007 26.3591 39.884 28.5826 39.884 31.7173H41.9506ZM39.5853 23.576C37.928 21.5647 35.5448 20.6155 32.6061 20.6155V22.6821C35.0704 22.6821 36.8083 23.4557 37.9903 24.8902L39.5853 23.576ZM32.6061 20.6155H28.9467V22.6821H32.6061V20.6155Z" fill="black"/>
<mask id="path-3-outside-1_6_19" maskUnits="userSpaceOnUse" x="5.16663" y="5.16663" width="55" height="55" fill="black">
<rect fill="white" x="5.16663" y="5.16663" width="55" height="55"/>
<path d="M55.3723 20.0833C58.3084 25.1688 59.4243 31.1029 58.5361 36.9075C57.6478 42.7122 54.8084 48.041 50.4859 52.0158C46.1634 55.9906 40.6156 58.3741 34.757 58.7735C28.8984 59.1729 23.0785 57.5643 18.2565 54.213C13.4345 50.8616 9.89825 45.9674 8.23045 40.337C6.56265 34.7066 6.86287 28.676 9.08164 23.2391C11.3004 17.8021 15.3053 13.2834 20.4363 10.4275C25.5673 7.57164 31.5182 6.54909 37.3082 7.5284L36.8773 10.0756C31.6663 9.19418 26.3106 10.1145 21.6927 12.6848C17.0748 15.255 13.4704 19.3219 11.4735 24.2152C9.47658 29.1084 9.20638 34.5359 10.7074 39.6033C12.2084 44.6707 15.3911 49.0755 19.7309 52.0917C24.0706 55.1079 29.3085 56.5556 34.5813 56.1961C39.8541 55.8367 44.847 53.6915 48.7373 50.1142C52.6276 46.5369 55.183 41.741 55.9824 36.5168C56.7819 31.2926 55.7776 25.9519 53.1351 21.375L55.3723 20.0833Z"/>
</mask>
<path d="M55.3723 20.0833C58.3084 25.1688 59.4243 31.1029 58.5361 36.9075C57.6478 42.7122 54.8084 48.041 50.4859 52.0158C46.1634 55.9906 40.6156 58.3741 34.757 58.7735C28.8984 59.1729 23.0785 57.5643 18.2565 54.213C13.4345 50.8616 9.89825 45.9674 8.23045 40.337C6.56265 34.7066 6.86287 28.676 9.08164 23.2391C11.3004 17.8021 15.3053 13.2834 20.4363 10.4275C25.5673 7.57164 31.5182 6.54909 37.3082 7.5284L36.8773 10.0756C31.6663 9.19418 26.3106 10.1145 21.6927 12.6848C17.0748 15.255 13.4704 19.3219 11.4735 24.2152C9.47658 29.1084 9.20638 34.5359 10.7074 39.6033C12.2084 44.6707 15.3911 49.0755 19.7309 52.0917C24.0706 55.1079 29.3085 56.5556 34.5813 56.1961C39.8541 55.8367 44.847 53.6915 48.7373 50.1142C52.6276 46.5369 55.183 41.741 55.9824 36.5168C56.7819 31.2926 55.7776 25.9519 53.1351 21.375L55.3723 20.0833Z" fill="white"/>
<path d="M55.3723 20.0833C58.3084 25.1688 59.4243 31.1029 58.5361 36.9075C57.6478 42.7122 54.8084 48.041 50.4859 52.0158C46.1634 55.9906 40.6156 58.3741 34.757 58.7735C28.8984 59.1729 23.0785 57.5643 18.2565 54.213C13.4345 50.8616 9.89825 45.9674 8.23045 40.337C6.56265 34.7066 6.86287 28.676 9.08164 23.2391C11.3004 17.8021 15.3053 13.2834 20.4363 10.4275C25.5673 7.57164 31.5182 6.54909 37.3082 7.5284L36.8773 10.0756C31.6663 9.19418 26.3106 10.1145 21.6927 12.6848C17.0748 15.255 13.4704 19.3219 11.4735 24.2152C9.47658 29.1084 9.20638 34.5359 10.7074 39.6033C12.2084 44.6707 15.3911 49.0755 19.7309 52.0917C24.0706 55.1079 29.3085 56.5556 34.5813 56.1961C39.8541 55.8367 44.847 53.6915 48.7373 50.1142C52.6276 46.5369 55.183 41.741 55.9824 36.5168C56.7819 31.2926 55.7776 25.9519 53.1351 21.375L55.3723 20.0833Z" stroke="black" stroke-width="2.06667" mask="url(#path-3-outside-1_6_19)"/>
<mask id="path-4-outside-2_6_19" maskUnits="userSpaceOnUse" x="0" y="0" width="66" height="66" fill="black">
<rect fill="white" width="66" height="66"/>
<path d="M6.15321 48.5C2.62988 42.3974 1.2908 35.2765 2.35669 28.3109C3.42257 21.3453 6.8298 14.9507 12.0168 10.181C17.2039 5.41127 23.8612 2.55107 30.8915 2.07179C37.9219 1.5925 44.9057 3.52273 50.6921 7.54436C56.4785 11.566 60.722 17.439 62.7234 24.1955C64.7248 30.952 64.3645 38.1887 61.702 44.713C59.0395 51.2374 54.2336 56.6599 48.0764 60.0869C41.9192 63.514 34.7782 64.741 27.8302 63.5659L28.3472 60.5093C34.6004 61.5669 41.0273 60.4626 46.5688 57.3782C52.1102 54.2939 56.4355 49.4136 58.8318 43.5417C61.2281 37.6699 61.5523 31.1568 59.7511 25.076C57.9498 18.9951 54.1306 13.7094 48.9229 10.0899C43.7152 6.47046 37.4297 4.73325 31.1024 5.16461C24.775 5.59597 18.7835 8.17014 14.1152 12.4629C9.44682 16.7557 6.38032 22.5108 5.42102 28.7798C4.46172 35.0489 5.66689 41.4577 8.83789 46.95L6.15321 48.5Z"/>
</mask>
<path d="M6.15321 48.5C2.62988 42.3974 1.2908 35.2765 2.35669 28.3109C3.42257 21.3453 6.8298 14.9507 12.0168 10.181C17.2039 5.41127 23.8612 2.55107 30.8915 2.07179C37.9219 1.5925 44.9057 3.52273 50.6921 7.54436C56.4785 11.566 60.722 17.439 62.7234 24.1955C64.7248 30.952 64.3645 38.1887 61.702 44.713C59.0395 51.2374 54.2336 56.6599 48.0764 60.0869C41.9192 63.514 34.7782 64.741 27.8302 63.5659L28.3472 60.5093C34.6004 61.5669 41.0273 60.4626 46.5688 57.3782C52.1102 54.2939 56.4355 49.4136 58.8318 43.5417C61.2281 37.6699 61.5523 31.1568 59.7511 25.076C57.9498 18.9951 54.1306 13.7094 48.9229 10.0899C43.7152 6.47046 37.4297 4.73325 31.1024 5.16461C24.775 5.59597 18.7835 8.17014 14.1152 12.4629C9.44682 16.7557 6.38032 22.5108 5.42102 28.7798C4.46172 35.0489 5.66689 41.4577 8.83789 46.95L6.15321 48.5Z" fill="black"/>
<path d="M6.15321 48.5C2.62988 42.3974 1.2908 35.2765 2.35669 28.3109C3.42257 21.3453 6.8298 14.9507 12.0168 10.181C17.2039 5.41127 23.8612 2.55107 30.8915 2.07179C37.9219 1.5925 44.9057 3.52273 50.6921 7.54436C56.4785 11.566 60.722 17.439 62.7234 24.1955C64.7248 30.952 64.3645 38.1887 61.702 44.713C59.0395 51.2374 54.2336 56.6599 48.0764 60.0869C41.9192 63.514 34.7782 64.741 27.8302 63.5659L28.3472 60.5093C34.6004 61.5669 41.0273 60.4626 46.5688 57.3782C52.1102 54.2939 56.4355 49.4136 58.8318 43.5417C61.2281 37.6699 61.5523 31.1568 59.7511 25.076C57.9498 18.9951 54.1306 13.7094 48.9229 10.0899C43.7152 6.47046 37.4297 4.73325 31.1024 5.16461C24.775 5.59597 18.7835 8.17014 14.1152 12.4629C9.44682 16.7557 6.38032 22.5108 5.42102 28.7798C4.46172 35.0489 5.66689 41.4577 8.83789 46.95L6.15321 48.5Z" stroke="white" stroke-width="2.06667" mask="url(#path-4-outside-2_6_19)"/>
</svg>
