<svg width="52" height="52" viewBox="0 0 52 52" fill="none" xmlns="http://www.w3.org/2000/svg">
<path d="M47.8173 13.6666C50.6587 18.5881 51.7386 24.3307 50.879 29.9482C50.0194 35.5656 47.2716 40.7225 43.0885 44.5691C38.9054 48.4156 33.5366 50.7222 27.867 51.1087C22.1974 51.4952 16.5652 49.9386 11.8988 46.6954C7.23235 43.4521 3.81013 38.7158 2.19613 33.267C0.582129 27.8182 0.872667 21.9821 3.01986 16.7206C5.16706 11.4591 9.04277 7.08607 14.0082 4.32232C18.9737 1.55857 24.7326 0.569011 30.3358 1.51673L29.502 6.44671C25.0194 5.68853 20.4123 6.48018 16.4399 8.69118C12.4675 10.9022 9.36697 14.4006 7.64922 18.6098C5.93146 22.819 5.69903 27.4879 6.99023 31.8469C8.28143 36.206 11.0192 39.995 14.7524 42.5896C18.4855 45.1842 22.9912 46.4295 27.5269 46.1203C32.0626 45.8111 36.3577 43.9658 39.7041 40.8886C43.0506 37.8113 45.2488 33.6858 45.9365 29.1918C46.6242 24.6979 45.7603 20.1038 43.4871 16.1666L47.8173 13.6666Z" fill="white" stroke="black"/>
<path d="M24.0269 17.2322C25.0674 17.2905 26.092 17.5238 27.0571 17.9236C28.1823 18.3897 29.2047 19.0728 30.0659 19.9341C30.9272 20.7953 31.6103 21.8177 32.0764 22.9429C32.5425 24.0681 32.7824 25.2741 32.7824 26.4921C32.7824 27.71 32.5425 28.916 32.0764 30.0412C31.6103 31.1665 30.9272 32.1889 30.0659 33.0501C29.2047 33.9113 28.1823 34.5944 27.0571 35.0605C26.092 35.4603 25.0674 35.6937 24.0269 35.752L24.0269 17.2322ZM19.4811 39.9841V40.503H20H23.5079C25.3479 40.503 27.1698 40.1406 28.8697 39.4365C30.5696 38.7324 32.1142 37.7004 33.4152 36.3993C34.7162 35.0983 35.7483 33.5537 36.4524 31.8538C37.1565 30.1539 37.5189 28.332 37.5189 26.4921C37.5189 24.6521 37.1565 22.8302 36.4524 21.1303C35.7483 19.4304 34.7162 17.8858 33.4152 16.5848C32.1142 15.2838 30.5696 14.2517 28.8697 13.5476C27.1698 12.8435 25.3479 12.4811 23.5079 12.4811H20H19.4811V13V39.9841Z" fill="white" stroke="black" stroke-width="1.03785"/>
</svg>
